<svg xmlns="http://www.w3.org/2000/svg" width="1004" height="1732" viewBox="0 0 1004 1732">
<g fill="black" stroke="none" fill-rule="nonzero">
<path d="M 826 628 L 810 625 L 808 626 L 807 632 L 814 641 L 818 643 L 846 669 L 856 682 L 866 700 L 872 724 L 875 769 L 872 790 L 872 806 L 868 832 L 867 868 L 862 908 L 857 925 L 855 958 L 846 988 L 840 1032 L 831 1061 L 828 1081 L 820 1112 L 818 1131 L 813 1143 L 812 1152 L 807 1164 L 806 1172 L 796 1201 L 796 1205 L 781 1236 L 773 1260 L 767 1267 L 753 1291 L 751 1297 L 738 1316 L 731 1333 L 724 1343 L 723 1347 L 715 1357 L 706 1376 L 697 1386 L 685 1404 L 676 1413 L 662 1438 L 653 1447 L 644 1460 L 631 1473 L 619 1490 L 609 1499 L 554 1564 L 537 1580 L 521 1598 L 510 1606 L 499 1617 L 482 1628 L 474 1636 L 469 1643 L 469 1646 L 471 1648 L 481 1645 L 495 1635 L 507 1629 L 529 1608 L 537 1603 L 554 1588 L 570 1570 L 580 1564 L 596 1547 L 614 1532 L 653 1490 L 659 1482 L 660 1478 L 666 1473 L 671 1464 L 674 1462 L 677 1456 L 687 1445 L 691 1437 L 700 1427 L 705 1418 L 713 1410 L 727 1388 L 743 1367 L 748 1357 L 757 1346 L 771 1318 L 775 1314 L 779 1305 L 786 1297 L 791 1287 L 792 1282 L 806 1255 L 815 1226 L 824 1208 L 825 1202 L 829 1194 L 836 1160 L 841 1149 L 846 1130 L 854 1083 L 859 1068 L 860 1056 L 867 1034 L 869 1016 L 874 1001 L 875 988 L 881 959 L 881 944 L 886 925 L 886 917 L 891 886 L 892 859 L 897 809 L 897 791 L 900 774 L 899 745 L 901 730 L 901 714 L 899 708 L 898 694 L 892 683 L 891 676 L 886 667 L 878 660 L 872 657 L 859 644 L 839 634 L 834 633 Z"/>
<path d="M 459 622 L 458 623 L 456 623 L 455 625 L 456 627 L 463 635 L 464 637 L 464 639 L 465 641 L 468 644 L 469 647 L 473 651 L 474 651 L 485 662 L 487 666 L 502 683 L 503 685 L 503 687 L 510 699 L 510 701 L 512 705 L 512 708 L 513 709 L 513 713 L 514 714 L 514 716 L 515 717 L 515 719 L 516 720 L 516 722 L 518 726 L 518 730 L 519 731 L 519 739 L 520 740 L 520 747 L 521 748 L 521 766 L 522 767 L 522 776 L 521 777 L 521 818 L 520 819 L 520 829 L 519 830 L 519 836 L 518 837 L 518 839 L 516 843 L 516 848 L 515 849 L 515 855 L 514 856 L 514 860 L 513 861 L 513 866 L 512 867 L 512 873 L 511 874 L 511 879 L 510 880 L 510 897 L 509 898 L 509 904 L 508 905 L 508 910 L 507 911 L 507 919 L 506 920 L 506 925 L 505 926 L 505 930 L 504 931 L 504 935 L 503 936 L 503 940 L 502 941 L 502 948 L 503 949 L 503 958 L 504 959 L 503 960 L 503 968 L 504 969 L 504 981 L 505 982 L 505 991 L 506 992 L 506 998 L 508 1002 L 508 1008 L 509 1009 L 509 1019 L 510 1020 L 510 1024 L 511 1025 L 512 1032 L 513 1033 L 514 1038 L 519 1047 L 519 1049 L 522 1055 L 524 1057 L 524 1058 L 532 1066 L 533 1066 L 538 1071 L 541 1072 L 545 1076 L 546 1076 L 559 1089 L 560 1089 L 566 1094 L 569 1095 L 571 1097 L 573 1098 L 575 1098 L 576 1099 L 586 1099 L 587 1100 L 591 1100 L 593 1098 L 593 1095 L 592 1093 L 583 1084 L 582 1082 L 582 1080 L 580 1078 L 578 1074 L 571 1066 L 570 1063 L 568 1061 L 568 1060 L 564 1055 L 563 1052 L 561 1050 L 560 1047 L 558 1045 L 555 1039 L 554 1034 L 550 1030 L 548 1026 L 548 1024 L 547 1023 L 547 1021 L 546 1020 L 546 1018 L 545 1017 L 545 1015 L 544 1014 L 544 1012 L 543 1011 L 542 1006 L 539 1001 L 539 999 L 537 995 L 537 992 L 535 988 L 535 972 L 534 971 L 534 962 L 533 961 L 533 951 L 534 950 L 534 926 L 535 925 L 535 915 L 536 914 L 536 902 L 537 901 L 537 894 L 538 893 L 538 879 L 539 878 L 540 867 L 541 866 L 541 863 L 542 862 L 542 856 L 543 855 L 543 844 L 544 843 L 544 836 L 545 835 L 545 830 L 546 829 L 546 826 L 547 825 L 547 822 L 548 821 L 548 818 L 549 817 L 549 813 L 550 812 L 550 804 L 551 803 L 551 800 L 552 799 L 552 796 L 553 795 L 553 788 L 554 787 L 554 772 L 555 771 L 555 763 L 556 762 L 556 757 L 555 756 L 555 754 L 556 753 L 556 730 L 555 729 L 555 721 L 554 720 L 554 716 L 549 707 L 549 704 L 548 703 L 548 701 L 547 700 L 547 696 L 546 695 L 546 689 L 545 688 L 545 685 L 544 684 L 544 682 L 542 678 L 539 675 L 539 674 L 537 672 L 536 672 L 522 657 L 521 657 L 512 648 L 511 648 L 509 646 L 505 644 L 503 644 L 501 643 L 498 640 L 483 633 L 477 628 L 475 628 L 463 622 Z"/>
<path d="M 551 110 L 541 110 L 533 114 L 527 115 L 514 124 L 505 127 L 450 164 L 434 180 L 397 212 L 368 242 L 364 249 L 354 259 L 349 262 L 326 292 L 314 316 L 297 343 L 283 372 L 275 384 L 260 417 L 258 427 L 249 445 L 238 478 L 233 486 L 230 498 L 219 525 L 214 546 L 206 565 L 203 584 L 188 630 L 187 640 L 183 650 L 181 663 L 177 674 L 175 688 L 171 702 L 171 708 L 166 727 L 165 747 L 160 761 L 159 777 L 155 796 L 155 806 L 149 838 L 148 892 L 144 949 L 144 1010 L 149 1038 L 160 1054 L 177 1071 L 192 1082 L 198 1084 L 202 1088 L 214 1090 L 216 1084 L 185 1043 L 181 1035 L 179 1026 L 173 1015 L 168 994 L 170 908 L 172 894 L 173 855 L 177 840 L 183 775 L 188 753 L 190 729 L 195 710 L 196 698 L 199 691 L 201 677 L 206 663 L 212 629 L 222 607 L 229 573 L 234 561 L 235 553 L 242 529 L 250 513 L 251 505 L 256 490 L 261 482 L 272 450 L 276 443 L 279 430 L 293 407 L 302 387 L 310 374 L 323 343 L 334 328 L 335 324 L 341 316 L 344 309 L 362 286 L 367 276 L 388 252 L 396 246 L 419 221 L 429 214 L 433 209 L 479 168 L 513 146 L 546 122 L 552 113 Z"/>
</g></svg>